<svg width="88" height="88" viewBox="0 0 88 88" fill="none" xmlns="http://www.w3.org/2000/svg">
<!-- <rect width="88" height="88" fill="white"/> -->
<path d="M23.55 73.75H83.55L35.45 25.45C29.05 19.05 20.35 15.25 11.3 15.25H1.25L2 17.2L5.35 25.95L23.55 73.75Z" fill="url(#paint0_linear_2123_12053)"/>
<path d="M5.35 25.95C11.9 37.15 29.15 38.3499 31.05 55.7999C31.15 56.4999 31.7 57.1 32.4 57.2C42.35 58.75 52 62.85 60.4 69.6V69.6C60.45 69.65 60.5 69.65 60.6 69.65C60.65 69.65 60.75 69.5999 60.8 69.5499C60.9 69.4499 60.9 69.25 60.8 69.15C55 63.05 47.85 58.15 39.9 54.95L37.45 53.95C36.2 53.45 35.35 52.1999 35.35 50.7999C35.5 45.5999 47.8 46.65 49.05 44.15L49.25 43.7C46.7 41.55 43.7 39.9 40.4 39C40.35 39.15 40.3 39.75 40.95 40.85C41.7 42.05 40.15 43.95 37.9 41.9L37.7 41.75C21.1 26.45 8.6 34.35 2 17.2L5.35 25.95Z" fill="white"/>
<path d="M45.7205 43.4C45.7205 43.4 42.947 43.55 41.2829 40.8C41.7871 41.6 41.2324 42.75 40.123 42.75V46.9C41.9384 46.4 44.006 46.05 45.7205 45.7V43.4V43.4Z" fill="url(#paint1_linear_2123_12053)"/>
<path d="M34.6769 57.55C43.9556 59.3 52.9821 63.3 60.8487 69.55C43.2496 54.7 35.2821 57.35 34.6769 57.55Z" fill="url(#paint2_linear_2123_12053)"/>
<path d="M8.90855 26.75V26.75C6.18547 24.8 3.86581 22 2 17.25L5.37863 26C11.9846 37.2 29.3821 38.4 31.2983 55.85C29.3316 33.55 19.4983 36.85 8.90855 26.75Z" fill="url(#paint3_linear_2123_12053)"/>
<defs>
<linearGradient id="paint0_linear_2123_12053" x1="94.5061" y1="59.3082" x2="72.1696" y2="-5.25631" gradientUnits="userSpaceOnUse">
<stop stop-color="#BE0000"/>
<stop offset="0.3898" stop-color="#DE0000"/>
<stop offset="0.768" stop-color="#F60000"/>
<stop offset="1" stop-color="#FF0000"/>
</linearGradient>
<linearGradient id="paint1_linear_2123_12053" x1="45.5087" y1="47.4433" x2="46.1537" y2="41.2877" gradientUnits="userSpaceOnUse">
<stop offset="0.65" stop-color="white" stop-opacity="0.01"/>
<stop offset="0.7285" stop-color="#E0E0E0" stop-opacity="0.2617"/>
<stop offset="0.8148" stop-color="#C5C5C5" stop-opacity="0.5493"/>
<stop offset="0.8914" stop-color="#B5B5B5" stop-opacity="0.8047"/>
<stop offset="0.95" stop-color="#AFAFAF"/>
</linearGradient>
<linearGradient id="paint2_linear_2123_12053" x1="34.6872" y1="69.5717" x2="60.8615" y2="69.5717" gradientUnits="userSpaceOnUse">
<stop stop-color="white" stop-opacity="0.01"/>
<stop offset="0.0839079" stop-color="#F1F1F1" stop-opacity="0.093231"/>
<stop offset="0.2921" stop-color="#D4D4D4" stop-opacity="0.3246"/>
<stop offset="0.4993" stop-color="#C0C0C0" stop-opacity="0.5548"/>
<stop offset="0.7032" stop-color="#B3B3B3" stop-opacity="0.7814"/>
<stop offset="0.9" stop-color="#AFAFAF"/>
</linearGradient>
<linearGradient id="paint3_linear_2123_12053" x1="1.99713" y1="55.7758" x2="31.2555" y2="55.7758" gradientUnits="userSpaceOnUse">
<stop offset="0.25" stop-color="white" stop-opacity="0.01"/>
<stop offset="0.4615" stop-color="#EDEDED" stop-opacity="0.282"/>
<stop offset="0.886" stop-color="#BDBDBD" stop-opacity="0.848"/>
<stop offset="1" stop-color="#AFAFAF"/>
</linearGradient>
</defs>
</svg>
